<svg width="63" height="56" viewBox="0 0 63 56" fill="none" xmlns="http://www.w3.org/2000/svg">
<g clip-path="url(#clip0_1_2)">
<path d="M38.5132 55.056C38.4747 55.1273 38.4068 55.1167 38.3426 55.131C36.8778 55.4576 35.5308 55.7386 34.023 55.8508C34.0736 55.8212 34.1936 55.7856 34.2495 55.775L34.4043 55.6947C35.4357 55.4879 36.4852 55.3204 37.5286 55.1598C37.6426 55.1424 37.7582 55.1553 37.8714 55.1689C38.0768 55.1265 38.3018 55.1015 38.5132 55.0553V55.056Z" fill="#CCE6AA"/>
<path d="M33.9475 55.8507L32.9667 55.9265C33.2838 55.8977 33.619 55.8742 33.9475 55.8507Z" fill="#CCE6AA"/>
<path d="M5.76248 38.7407C5.71114 38.6634 5.63941 38.4982 5.75342 38.4551C22.9065 38.4414 40.0603 38.4384 57.2141 38.4467C57.2277 38.4558 57.2405 38.4657 57.2488 38.4785C57.3342 38.6157 56.1767 40.9263 56.0559 41.1536C53.5461 45.8786 49.5829 49.8484 44.9281 52.4431L44.8525 52.4174C44.8337 49.906 44.8156 47.3938 44.7967 44.8817L44.8714 44.8347L44.8367 44.9105H42.9921L42.9476 44.8347C42.8396 44.8877 42.7898 44.7809 42.7981 44.5142C42.8049 43.721 42.8041 42.9392 42.7973 42.1687C41.3537 42.1657 39.9259 42.165 38.5147 42.1657L38.5902 42.2006V44.7317L38.5147 44.7771L38.4785 44.8529C33.8033 44.8589 29.1273 44.8658 24.4505 44.8718L24.403 44.7961L24.3275 44.7605V42.1725L24.403 42.1271C24.3214 42.1831 24.3056 42.1597 24.3464 42.0703C24.3464 42.0998 24.3388 42.1453 24.3199 42.146C22.9888 42.171 21.6108 42.171 20.2797 42.146L20.2336 42.0703C20.2638 42.1703 20.0955 42.2278 20.026 42.165C20.0562 42.168 20.1007 42.1794 20.1015 42.1998C20.1257 43.018 20.1257 43.9127 20.1015 44.7309L20.026 44.7764C20.0909 44.8567 20.0607 44.8824 19.9694 44.8332C19.9663 44.8627 19.9558 44.9082 19.9346 44.9089C19.696 44.9188 18.1165 44.9567 18.0334 44.9089L17.9881 44.8332L18.0636 44.8597V52.3954L17.9881 52.4424H17.9504C17.2867 52.0901 16.6449 51.6863 16.0258 51.231C15.2315 50.7924 14.4991 50.2007 13.7954 49.6173C10.8628 47.187 8.75321 44.5006 6.89127 41.1907C6.56358 40.6081 5.915 39.4036 5.74361 38.7892C5.73983 38.7748 5.74889 38.7573 5.76173 38.7384L5.76248 38.7407Z" fill="#87C43E"/>
<path d="M4.05533 20.9579L9.89106 20.951C11.7477 21.2579 11.6496 23.9231 9.89559 24.2806L4.54007 24.2829C3.32521 24.4768 3.26858 26.2526 4.51666 26.4579C5.73681 26.6595 7.28088 26.2852 8.52745 26.5602C9.86539 26.8557 11.0433 27.9375 11.574 29.1815C12.7965 32.0436 10.9723 35.355 7.82149 35.5618C5.72473 35.6997 3.47999 35.4558 1.36738 35.5603C-0.239349 35.3937 -0.467371 32.8838 0.888685 32.3156C1.11142 32.2224 1.56369 32.2012 1.8189 32.1891C3.53284 32.1103 5.28681 32.2406 6.99018 32.1906C7.62593 32.1716 8.29188 32.1057 8.54557 31.4042C8.87251 30.4981 8.23827 29.8815 7.36922 29.8042C5.31701 29.6224 3.61514 30.311 1.85967 28.783C-1.06083 26.239 0.219717 21.5177 4.05684 20.9579H4.05533Z" fill="#2B2A51"/>
<path d="M16.7182 21.3882C17.0821 21.717 17.2331 22.067 17.2701 22.5571C17.4211 24.5867 17.1493 26.7981 17.2686 28.8421C17.5268 33.2686 24.1614 33.7414 24.4785 28.8799C24.6144 26.7882 24.375 24.5488 24.4755 22.4412C24.7639 20.526 27.4768 20.3889 27.7992 22.3655C27.6867 24.6223 27.9434 27.017 27.7992 29.258C27.4239 35.0611 20.6376 37.7619 16.2893 33.9133C12.8984 30.9118 14.1359 26.4352 13.9222 22.4147C14.1216 21.0442 15.6822 20.4503 16.7189 21.3874L16.7182 21.3882Z" fill="#2B2A51"/>
<path d="M30.8911 35.2581C30.4637 34.9535 30.2327 34.5906 30.136 34.0656C30.3746 30.4247 29.2594 26.4125 31.8522 23.4086C35.9083 18.7101 43.4082 21.1124 44.3202 27.1034C44.278 29.3534 44.5128 31.7951 44.3625 34.03C44.2236 36.0952 41.1868 35.9982 41.0388 34.03C40.8946 32.1148 41.1483 30.0201 41.0396 28.0852C40.9611 26.6852 40.2619 25.4829 39.0448 24.7867C36.6415 23.4109 33.65 25.0132 33.4922 27.7807C33.3872 29.6224 33.5624 31.5686 33.4952 33.4247C33.4763 33.9489 33.4801 34.3368 33.2294 34.8043C32.7062 35.6103 31.6891 35.7641 30.8903 35.2588L30.8911 35.2581Z" fill="#2B2A51"/>
<path d="M52.2633 33.8035C48.5289 30.4633 49.2635 24.4261 53.5567 21.9404C56.1797 20.4215 59.8492 20.6056 62.134 22.6708C63.0695 23.5162 63.4062 24.7897 62.2593 25.6367C60.904 26.6367 59.9549 25.1716 58.8458 24.6837C57.1635 23.9435 55.245 24.4322 54.1411 25.8958C51.7612 29.0512 54.8191 33.3686 58.5687 32.0792C59.9096 31.6179 60.873 29.8671 62.3945 31.1163C63.5467 32.0626 62.8649 33.383 61.9248 34.1596C59.1795 36.4285 54.8742 36.1391 52.2633 33.8042V33.8035Z" fill="#2C2A52"/>
<path d="M17.9874 52.4439V44.8347H19.9686C19.9724 44.8347 20.0252 44.7817 20.0252 44.7779V42.1657C20.0252 42.1415 20.208 42.071 20.2329 42.071H24.3456C24.3494 42.071 24.4022 42.1241 24.4022 42.1278V44.7968L38.514 44.7779V42.1657C38.514 42.1589 38.5721 42.0991 38.5902 42.0907H42.8154C42.9717 42.1665 42.8532 42.5491 42.8509 42.6938C42.8487 42.8498 42.8902 42.9771 42.8917 43.1104C42.8993 43.5998 42.8343 44.2407 42.8879 44.7036C42.8925 44.7415 42.9053 44.8339 42.9468 44.8339H44.8714L44.9281 52.4431C44.7234 52.6045 44.4305 52.7674 44.1738 52.8598C44.1141 52.8878 43.9669 52.9045 43.9465 52.834L43.8906 45.9036L43.9654 45.8567L43.9291 45.9324H18.9969L18.9493 45.8567L19.0248 45.8839L18.9689 52.7583C18.9652 52.8659 18.8897 52.9 18.7417 52.8598C18.6065 52.8053 18.4676 52.7424 18.3264 52.6704C18.2464 52.6189 18.001 52.5015 17.9866 52.4431L17.9874 52.4439Z" fill="#2A2A28"/>
<path d="M20.1377 2.43715C20.1687 2.44776 20.1687 2.46064 20.1377 2.47503C20.057 2.55155 19.9724 2.62807 19.872 2.67958C18.1452 3.56672 16.6321 4.38567 15.0601 5.55159C10.7473 8.75163 7.06267 13.3684 5.42876 18.4336C22.5078 18.4578 40.4295 18.476 57.501 18.4275C56.077 14.185 53.2328 10.1804 49.8351 7.15085C48.6308 6.07736 47.4174 5.23113 46.0976 4.32203C45.9957 4.25157 45.9126 4.15915 45.8318 4.06596C45.7888 4.03793 45.776 4.01293 45.7941 3.99021C50.8317 7.016 54.7776 11.5403 57.1137 16.9555C57.3357 17.4692 57.5863 18.0578 57.6792 18.6025H5.23396C5.22489 18.4154 5.30266 18.2404 5.36005 18.0662C5.68245 17.0828 6.26459 15.8782 6.75008 14.9563C9.69852 9.3524 14.3911 5.00386 20.1377 2.43791V2.43715Z" fill="#C8E1AA"/>
<path d="M46.3158 27.3572C46.7711 27.3148 47.9973 27.2882 48.408 27.3936C49.4002 27.6473 49.2771 29.1633 48.2291 29.2769C47.7791 29.3254 46.6782 29.3262 46.229 29.2769C45.1176 29.1557 44.9922 27.4799 46.3158 27.3572Z" fill="#2A2A4F"/>
<path d="M33.9097 38.3998C41.6383 38.3914 49.3685 38.4081 57.0971 38.3982C57.3681 38.4179 57.3304 38.4695 57.2458 38.702C57.042 39.2619 56.6826 39.9725 56.4123 40.5157C53.7832 45.8036 49.4145 50.2128 44.1723 52.8984C44.139 52.8878 44.1398 52.875 44.1723 52.8606C44.2719 52.8378 44.7944 52.5212 44.9265 52.4439C50.0948 49.4423 54.6621 44.737 56.9695 39.1445C57.008 39.052 57.2217 38.5088 57.1892 38.4755H5.74512C5.70133 38.4808 5.75116 38.7058 5.76248 38.7407C5.65602 38.7445 5.53673 38.4142 5.75191 38.427L33.9105 38.3998H33.9097Z" fill="#C1DE9F"/>
<path d="M45.7956 3.98945L45.8334 4.06521C45.742 4.06369 45.6537 4.04627 45.5691 4.01218C39.5061 0.394702 32.1014 -0.717434 25.2071 0.85986C23.5498 1.23865 22.1069 1.77351 20.5311 2.38488C20.405 2.43412 20.2714 2.45685 20.1377 2.47503V2.43715C28.4923 -1.2932 37.9658 -0.713646 45.7948 3.98945H45.7956Z" fill="#C5E1A3"/>
<path d="M33.9097 38.3998C24.5472 38.4104 15.1537 38.4725 5.7791 38.4361C5.58958 38.4179 5.65074 38.6642 5.76173 38.7407C5.92104 39.218 6.29555 39.943 6.5281 40.4134C8.65052 44.7127 12.052 48.5704 16.025 51.2325C16.0779 51.2689 16.1028 51.3068 16.1005 51.3461C16.0122 51.3196 15.9148 51.2628 15.8393 51.2113C13.5356 49.6476 11.3453 47.6014 9.61245 45.4211C7.95135 43.3316 6.60134 40.9619 5.58279 38.4937L5.64998 38.4195L33.9097 38.3998Z" fill="#CFE9AF"/>
<path d="M18.7417 52.8606C18.8504 52.8644 18.9569 52.8833 19.0603 52.9181C21.9393 54.2462 24.8507 55.2409 28.0204 55.6174C30.0212 55.8553 31.8545 55.8068 33.8546 55.7295C33.9875 55.7242 34.1196 55.7485 34.2487 55.775C34.1951 55.8152 34.1196 55.8409 34.0222 55.8508C33.9973 55.8523 33.9716 55.8492 33.9467 55.8508L32.9659 55.9265C29.43 56.2439 25.1867 55.5038 21.8668 54.2856C20.7712 53.8833 19.2921 53.2939 18.3264 52.6704C18.488 52.6659 18.6058 52.8 18.7417 52.8598V52.8606Z" fill="#C9E3A8"/>
<path d="M44.173 52.8984C42.4704 53.7704 40.3842 54.6492 38.5132 55.056C38.3139 55.125 38.076 55.1856 37.8714 55.1697C37.953 55.103 38.0428 55.0507 38.141 55.0121C40.1592 54.5303 42.0234 53.8068 43.8219 52.8795C43.9284 52.831 44.0454 52.8371 44.173 52.8984Z" fill="#C0DD9C"/>
<path d="M16.025 51.2325C16.6011 51.6189 17.2452 51.9931 17.8492 52.3378C17.8998 52.3666 17.97 52.35 17.9489 52.4439C17.4694 52.1636 16.4637 51.731 16.0998 51.3462C16.0718 51.3166 16.0522 51.2658 16.0243 51.2325H16.025Z" fill="#C8E4A5"/>
<path d="M30.8911 35.258C31.4853 35.555 32.0561 35.655 32.6616 35.3118C32.9115 35.1702 33.0346 34.9997 33.2309 34.8035C32.7741 35.6565 31.6431 35.7944 30.8918 35.258H30.8911Z" fill="#9D9DAE"/>
<path d="M16.7793 46.5764C16.6253 46.5643 16.5015 46.443 16.3844 46.3483C14.1865 44.5748 11.6813 41.5634 10.4589 39.0066C10.4188 38.9232 10.2693 38.7081 10.3645 38.6452C10.483 38.5672 11.6329 38.5642 11.793 38.6142C11.8383 38.6285 11.8813 38.646 11.9131 38.6831L12.4703 39.6763C13.67 41.5672 15.1114 43.2885 16.7748 44.7839C16.8163 44.8392 16.8133 44.9021 16.8193 44.9665C16.8654 45.4741 16.7989 46.0665 16.7793 46.5771V46.5764Z" fill="#CAE6A9"/>
<path d="M51.0024 38.9672C50.9873 38.8339 51.0907 38.6634 51.2402 38.6323C51.4328 38.5929 52.4438 38.5884 52.5955 38.649C52.6627 38.6755 52.591 38.8854 52.5487 38.9293C52.4981 39.1089 52.3184 39.4308 52.2233 39.6058C50.9457 41.9574 48.7644 44.5976 46.6805 46.2718C46.5446 46.3809 46.3762 46.5499 46.2101 46.5756V44.7771C46.7341 44.3226 47.2445 43.8453 47.7202 43.34C48.0147 43.0271 48.7327 42.0566 49.0023 41.8816C49.0257 41.8475 49.0506 41.8347 49.0778 41.8437C49.1608 41.8589 49.1503 41.9187 49.1027 41.9801C48.889 42.2574 48.6617 42.5263 48.4284 42.7869C47.7685 43.5233 47.0716 44.2248 46.3551 44.9059C46.3083 44.9536 46.3022 46.065 46.3362 46.2059C46.343 46.2332 46.4125 46.2855 46.4351 46.2665C48.9086 44.1968 50.9775 41.7043 52.4407 38.8293C52.4317 38.7619 52.4551 38.7195 52.5102 38.702C52.5102 38.7316 52.5034 38.7763 52.4845 38.7778C52.1304 38.7998 51.6449 38.7998 51.2908 38.7778L51.2463 38.702C51.3021 38.7952 51.0968 39.049 51.0009 38.9672H51.0024Z" fill="#D2EDB5"/>
<path d="M52.5495 38.9293C52.5615 38.8861 52.5985 38.6763 52.5872 38.6642C52.1659 38.7036 51.6555 38.6119 51.2455 38.6619C51.0741 38.6823 51.0635 38.8429 51.0024 38.9672C51.0024 39.0096 51.0024 39.0513 50.9956 39.093C50.9888 39.1346 50.982 39.1725 50.9654 39.2066C50.5259 40.0733 49.8842 40.949 49.2786 41.7097C49.2552 41.7392 49.222 41.7619 49.188 41.7847C49.154 41.8074 49.1163 41.8263 49.0778 41.8437C49.0536 41.8574 49.0257 41.8665 49.0023 41.8816C49.3088 41.393 49.6999 40.9468 50.0223 40.4634C50.4089 39.8831 50.7494 39.268 51.0945 38.6626C51.1632 38.6157 51.2417 38.5982 51.3225 38.5892C51.5596 38.5626 52.2625 38.5566 52.4898 38.5914C52.7171 38.6263 52.7012 38.7998 52.5487 38.9293H52.5495Z" fill="#CBE7A9"/>
<path d="M18.7417 52.8606L18.8927 52.8053L18.9493 45.8574H43.9654L44.022 52.8606C44.0696 52.8553 44.1307 52.8704 44.173 52.8606V52.8984C44.1073 52.8984 44.0386 52.8878 43.9744 52.9075C43.4014 53.0848 42.5572 53.6136 41.9464 53.8628C41.5304 54.0333 41.0517 54.2076 40.6258 54.3545C39.7205 54.6674 38.7896 54.8977 37.8722 55.1689C36.6671 55.4174 35.4515 55.5462 34.2502 55.7742C31.5283 55.9977 28.7671 55.9129 26.0852 55.3917C23.4018 54.8697 21.2039 53.9454 18.7424 52.859L18.7417 52.8606Z" fill="#87C43E"/>
<path d="M41.9841 43.1316V44.7786C41.9841 44.7824 41.9313 44.8355 41.9275 44.8355H39.4751C39.4714 44.8355 39.4185 44.7824 39.4185 44.7786V43.1885C39.4185 43.1847 39.4714 43.1316 39.4751 43.1316H41.9841Z" fill="#87C33F"/>
<path d="M20.9305 43.1316H23.4395C23.4433 43.1316 23.4962 43.1847 23.4962 43.1885V44.7786C23.4962 44.7824 23.4433 44.8355 23.4395 44.8355H20.9872C20.9834 44.8355 20.9305 44.7824 20.9305 44.7786V43.1316Z" fill="#8BBE48"/>
<path d="M45.8334 4.06445C50.6981 7.08191 54.6915 11.5456 56.9778 16.8267C57.1545 17.2358 57.3998 17.7896 57.5274 18.2063C57.6128 18.4851 57.6075 18.5116 57.3243 18.5275L5.5171 18.526C5.48161 18.523 5.36382 18.5018 5.3525 18.4836C5.30795 18.4131 5.50653 17.8768 5.54956 17.7631C8.05932 11.0948 13.6859 5.36977 20.1385 2.47503C27.6285 -0.884103 36.4429 -0.680312 43.7917 2.95307C44.4856 3.29626 45.1447 3.71293 45.8341 4.06521L45.8334 4.06445Z" fill="#87C43E"/>
<path d="M10.4415 38.7028L11.5861 38.6785C11.7447 38.6861 11.8149 38.7642 11.9116 38.874C12.1811 39.1793 12.4884 39.8672 12.733 40.2452C13.8392 41.9528 15.2262 43.468 16.7227 44.8362C16.7589 44.9165 16.7619 46.1021 16.7438 46.2567C16.7272 46.4006 16.6638 46.4294 16.5324 46.3514C14.268 44.4218 12.2038 42.0975 10.7903 39.4687C10.7405 39.3755 10.4083 38.7354 10.4407 38.7028H10.4415Z" fill="#FCFCFB"/>
<path d="M51.0024 38.9672C51.0628 38.9376 51.2077 38.702 51.2478 38.702H52.5117C52.5653 38.9195 52.4015 39.0142 52.3214 39.174C51.2047 41.3953 49.4908 43.5695 47.6825 45.2711C47.3004 45.6309 46.8753 45.9506 46.4955 46.3143C46.4246 46.3953 46.3022 46.3112 46.2683 46.2355C46.2162 46.1173 46.2358 45.0006 46.2962 44.865C47.2566 43.9317 48.2117 42.9938 49.0415 41.9392C49.0687 41.9044 49.0695 41.8566 49.0785 41.8453C49.7815 40.9422 50.4973 39.993 51.0031 38.9679L51.0024 38.9672Z" fill="#FDFCFC"/>
<path d="M39.192 48.8855V50.2484H40.3993V51.2136C40.3993 51.428 39.192 51.1621 39.192 51.3272V52.5765C39.192 52.5803 39.1391 52.6333 39.1354 52.6333H38.2867V51.3272C38.2867 51.3234 38.2339 51.2704 38.2301 51.2704H37.0794V50.2484H38.2301C38.2339 50.2484 38.2867 50.1954 38.2867 50.1916V48.8855H39.192Z" fill="#2B2C24"/>
<path d="M25.8353 50.2484V51.2136C25.8353 51.2174 25.7824 51.2704 25.7787 51.2704H22.5146V50.2484H25.8353Z" fill="#2B2D25"/>
<path d="M36.6264 4.78416C36.7124 4.79931 36.8038 4.80688 36.8906 4.82203C42.2023 6.1122 47.0512 9.23497 50.381 13.6229C51.0273 14.4744 51.5407 15.3252 52.0843 16.2396C52.1281 16.3131 52.8281 17.576 52.8032 17.679C52.785 17.7548 52.7495 17.7783 52.6816 17.7313C52.6801 17.7563 52.6786 17.7752 52.6748 17.776C52.2965 17.8101 51.7823 17.8154 51.4056 17.7783C51.3958 17.7775 51.3874 17.7571 51.3799 17.7313C47.3616 9.90165 38.8613 5.03037 30.1375 5.57962L30.0145 5.6228C26.4272 5.81902 22.791 7.00843 19.7995 8.83573C16.2795 10.9585 13.439 14.1888 11.5257 17.7624L11.4797 17.7321C11.4782 17.7601 11.4766 17.7821 11.4729 17.7828C11.1912 17.801 10.4664 17.8389 10.2225 17.7904C10.1931 17.7843 10.181 17.7616 10.178 17.7328C10.1463 17.6995 10.1312 17.6593 10.1478 17.6177C10.5464 16.6207 11.2343 15.5245 11.8542 14.61C17.2935 6.58797 27.1846 2.62428 36.6264 4.78416Z" fill="#FDFDFC"/>
<path d="M36.6264 4.78416C33.7006 4.26672 31.0126 4.0546 28.043 4.48112C20.8346 5.5175 14.2061 10.0979 10.7292 16.5237C10.5245 16.9017 10.2784 17.3214 10.1772 17.7298H11.4789C11.5642 17.7298 11.7507 17.2669 11.7991 17.1805C13.5402 14.1116 15.9133 11.3933 18.836 9.40164C19.1403 9.19406 19.4718 9.00542 19.798 8.83345C19.8229 8.84482 19.8101 8.86982 19.7602 8.90921C16.5717 10.8683 14.0159 13.5964 12.1079 16.8093C12.0165 16.9631 11.5975 17.8071 11.5099 17.8366C11.2592 17.8055 10.2248 17.9131 10.0791 17.8078C10.0504 17.7874 10.0262 17.7548 10.0315 17.7177C12.1713 13.1956 15.8121 9.3577 20.2117 6.99706C25.0493 4.40082 30.6887 3.54399 36.0993 4.61143C36.2519 4.64173 36.5116 4.68567 36.6256 4.7834L36.6264 4.78416Z" fill="#CFE8AE"/>
<path d="M34.5515 5.80614C33.1871 5.56977 31.7276 5.57129 30.3218 5.60841L30.1368 5.57886C30.176 5.51598 30.2802 5.54098 30.3436 5.54023C32.0304 5.51901 33.4899 5.56295 35.1389 5.84099C41.9388 6.9857 47.5707 10.9933 50.9918 16.9646C51.1315 17.2093 51.2659 17.4722 51.3791 17.7305H52.6808C52.7035 17.7305 52.7337 17.676 52.7322 17.6434C52.7284 17.5684 52.5192 17.1389 52.4687 17.0351C49.5746 11.0918 43.3908 6.41751 37.0311 4.92734C36.9691 4.91295 36.9171 4.88264 36.8906 4.82203C37.7348 4.96749 38.5691 5.24022 39.3792 5.52432C44.3603 7.27358 48.7433 10.7933 51.546 15.2737C51.7197 15.551 52.9209 17.6108 52.887 17.7472C52.8703 17.8131 52.5079 17.8412 52.4188 17.8465C52.258 17.8563 51.4343 17.8662 51.3572 17.8101C50.4489 16.1199 49.3911 14.5055 48.1158 13.0744C44.6683 9.20694 39.7107 6.47963 34.5507 5.8069L34.5515 5.80614Z" fill="#CCE7AB"/>
<path d="M30.1368 5.57886C31.5487 5.53644 32.9765 5.57508 34.3778 5.73341C34.4398 5.74023 34.5085 5.7569 34.5507 5.80538C29.3961 5.1334 24.178 6.19554 19.7602 8.90921C19.7753 8.888 19.7829 8.85088 19.798 8.83345C19.8765 8.74557 20.3824 8.44254 20.519 8.36451C23.253 6.80009 26.9845 5.67205 30.1368 5.57811V5.57886Z" fill="#C2DE9F"/>
</g>
<defs>
<clipPath id="clip0_1_2">
<rect width="63" height="56" fill="white"/>
</clipPath>
</defs>
</svg>
